<svg width="34" height="23" viewBox="0 0 34 23" fill="none" xmlns="http://www.w3.org/2000/svg">
<path d="M33.8483 19.7615V22.9906L26.0411 22.9756L26.0502 17.7467L18.2883 16.8589C17.7061 16.7932 17.138 16.6358 16.6054 16.3924L0 8.8086L0.512121 8.07279C0.642726 7.8857 0.823252 7.73873 1.03331 7.64846C1.72406 7.35505 2.49571 7.30984 3.21624 7.52056L7.83289 8.87481L13.004 10.2772L14.7956 10.6835C14.7351 11.1038 14.8374 11.5313 15.0817 11.8793C15.3261 12.2272 15.6943 12.4695 16.1114 12.5569L22.1255 13.8148C22.191 13.8321 22.2594 13.8359 22.3265 13.8259C22.3936 13.816 22.4579 13.7926 22.5156 13.7572C22.5734 13.7217 22.6232 13.6749 22.6622 13.6197C22.7012 13.5644 22.7285 13.5018 22.7425 13.4357C22.7564 13.3696 22.7567 13.3014 22.7434 13.2352C22.73 13.1689 22.7033 13.1061 22.6648 13.0505C22.6263 12.9949 22.5768 12.9477 22.5194 12.9117C22.462 12.8757 22.3979 12.8518 22.3309 12.8413L21.3777 12.6426L17.1085 11.6676C16.7264 11.5805 16.3911 11.3534 16.1694 11.0314C15.9477 10.7094 15.8559 10.316 15.912 9.92962L15.9709 9.51131C15.9988 9.31769 16.0978 9.14126 16.2488 9.01617C16.3998 8.89109 16.592 8.82624 16.7882 8.83418L18.4424 8.90039C21.2474 9.01291 24.0267 9.48011 26.7134 10.2908C27.3618 10.4862 27.9819 10.7649 28.5579 11.1199C30.9965 12.6254 32.7825 14.984 33.5658 17.7331C33.7541 18.3929 33.8492 19.0756 33.8483 19.7615Z" fill="#56D496"/>
<path d="M26.594 0.713345C24.0138 0.261928 20.5905 0.00612647 16.9558 0.00010757C13.3211 -0.00591133 9.89945 0.240862 7.31769 0.687765C4.16792 1.23398 2.76299 1.88101 2.76148 2.98397C2.75997 4.08694 4.16339 4.82576 7.31165 5.37799C9.89189 5.82941 13.3151 6.08521 16.9483 6.09123C20.5815 6.09725 24.0062 5.85047 26.588 5.40357C29.7377 4.85736 31.1442 4.12305 31.1442 3.02009C31.1442 1.91713 29.7483 1.26708 26.594 0.713345ZM25.7752 4.03879C23.3475 4.41196 20.2144 4.6151 16.9513 4.61209C13.6882 4.60908 10.5536 4.39541 8.12742 4.0102C5.65745 3.62348 4.71781 3.19464 4.38244 2.98097C4.71781 2.7703 5.65896 2.07813 8.13044 1.70044C11.0514 1.2598 14.0016 1.03899 16.9558 1.03987C19.9063 1.05878 22.8527 1.2598 25.7782 1.64176C28.4627 1.98484 29.1878 2.80491 29.5217 3.01858C29.1878 3.22925 28.2467 3.65659 25.7752 4.03879Z" fill="#56D496"/>
</svg>
